<svg xmlns="http://www.w3.org/2000/svg" viewBox="0 0 1200 700" role="img" aria-labelledby="t d">
<title id="t">Cafe</title><desc id="d">Xicara de cafe quente com pires</desc>
<defs><linearGradient id="b" x2="1" y2="1"><stop stop-color="#241811"/><stop offset="1" stop-color="#171319"/></linearGradient><filter id="s"><feDropShadow dy="16" stdDeviation="18" flood-opacity=".4"/></filter></defs>
<rect width="1200" height="700" fill="url(#b)"/><ellipse cx="600" cy="470" rx="230" ry="40" fill="#f8f3e9" stroke="#c89a2b" stroke-width="10" filter="url(#s)"/>
<path d="M480 320h220l-14 130a110 60 0 01-192 0z" fill="#efe7d8"/><path d="M498 340h184l-10 110a92 50 0 01-164 0z" fill="#4a2c1a"/>
<path d="M700 350c50-10 80 20 70 55-10 32-55 42-85 22" fill="none" stroke="#efe7d8" stroke-width="16"/>
<path d="M560 300c-10-30 15-45 5-70M610 300c-10-30 15-45 5-70M660 300c-10-30 15-45 5-70" fill="none" stroke="#efe7d8" stroke-width="8" stroke-linecap="round" opacity=".7"/>
</svg>
